<svg width="20" height="36" viewBox="0 0 20 36" fill="none" xmlns="http://www.w3.org/2000/svg">
<path d="M15.4381 18.4061L1.92811 32.2899C1.81688 32.4018 1.72894 32.5347 1.66939 32.6808C1.60983 32.8269 1.57984 32.9833 1.58115 33.1411C1.58247 33.2988 1.61505 33.4548 1.67702 33.5999C1.739 33.7449 1.82913 33.8763 1.9422 33.9863C2.05528 34.0963 2.18905 34.1829 2.33577 34.2408C2.4825 34.2988 2.63927 34.3271 2.79701 34.3241C2.95475 34.3211 3.11033 34.2869 3.25474 34.2233C3.39915 34.1598 3.52953 34.0683 3.63834 33.954L17.9565 19.2381C18.1732 19.0154 18.2945 18.7169 18.2945 18.4061C18.2945 18.0953 18.1732 17.7968 17.9565 17.574L3.63834 2.85812C3.52953 2.74387 3.39916 2.65234 3.25474 2.58881C3.11033 2.52528 2.95475 2.49103 2.79701 2.48802C2.63927 2.48502 2.4825 2.51333 2.33577 2.57131C2.18905 2.6293 2.05528 2.7158 1.9422 2.82582C1.82913 2.93585 1.739 3.0672 1.67703 3.21229C1.61505 3.35738 1.58247 3.51331 1.58116 3.67108C1.57985 3.82884 1.60984 3.9853 1.66939 4.13139C1.72895 4.27749 1.81688 4.41032 1.92811 4.52221L15.4397 18.4061L15.4381 18.4061Z" fill="#404040"/>
</svg>
