<svg width="16" height="16" viewBox="0 0 16 16" fill="none" xmlns="http://www.w3.org/2000/svg">
<path d="M15.7675 7.49017L7.80826 0.582163C7.74716 0.529494 7.66921 0.5 7.58705 0.5H5.72259C5.56669 0.5 5.49506 0.69382 5.61303 0.794944L12.9908 7.19944H0.662192C0.569495 7.19944 0.493652 7.27528 0.493652 7.36798V8.63202C0.493652 8.72472 0.569495 8.80056 0.662192 8.80056H12.9887L5.61093 15.2051C5.49295 15.3083 5.56458 15.5 5.72048 15.5H7.64815C7.68818 15.5 7.7282 15.4853 7.7577 15.4579L15.7675 8.50983C15.8405 8.44641 15.8989 8.36808 15.939 8.28013C15.9791 8.19218 15.9998 8.09665 15.9998 8C15.9998 7.90335 15.9791 7.80782 15.939 7.71987C15.8989 7.63192 15.8405 7.55359 15.7675 7.49017Z" fill="#404040"/>
</svg>
