<svg width="27" height="28" viewBox="0 0 27 28" fill="none" xmlns="http://www.w3.org/2000/svg">
<path d="M0.894378 2.62827C0.894378 2.38958 0.989199 2.16066 1.15798 1.99188C1.32676 1.82309 1.55568 1.72827 1.79438 1.72827H2.58278C3.89138 1.72827 4.64378 2.57967 5.07938 3.42927C5.37638 4.01067 5.59058 4.71987 5.76878 5.33547H24.2998C24.5779 5.33555 24.8522 5.40009 25.1012 5.52401C25.3502 5.64793 25.5671 5.82787 25.7349 6.0497C25.9027 6.27153 26.0168 6.52923 26.0682 6.80256C26.1196 7.07589 26.107 7.35743 26.0314 7.62507L23.3386 17.1201C23.1244 17.8734 22.6704 18.5363 22.0454 19.0083C21.4204 19.4803 20.6586 19.7356 19.8754 19.7355H10.7332C9.94347 19.7357 9.17559 19.4763 8.54783 18.9972C7.92007 18.5181 7.46727 17.8459 7.25918 17.0841L6.10358 12.8451C6.09695 12.8261 6.09095 12.8069 6.08558 12.7875L4.22978 6.49287L4.04978 5.88627C3.86978 5.26347 3.71138 4.71267 3.47378 4.25007C3.18758 3.69207 2.92478 3.53007 2.58098 3.53007H1.79258C1.55388 3.53007 1.32496 3.43525 1.15618 3.26647C0.987399 3.09768 0.892578 2.86877 0.892578 2.63007L0.894378 2.62827ZM7.82078 12.3015L8.99618 16.6143C9.10039 16.995 9.32686 17.3309 9.64073 17.5703C9.95459 17.8097 10.3384 17.9393 10.7332 17.9391H19.8772C20.2686 17.9387 20.6492 17.8107 20.9613 17.5746C21.2735 17.3384 21.5001 17.007 21.607 16.6305L24.2998 7.13547H6.29978L7.82078 12.2997V12.3015Z" fill="#404040"/>
<path d="M13.4996 24.2356C13.4996 24.9517 13.2151 25.6385 12.7088 26.1448C12.2025 26.6512 11.5157 26.9356 10.7996 26.9356C10.0835 26.9356 9.39677 26.6512 8.89042 26.1448C8.38407 25.6385 8.09961 24.9517 8.09961 24.2356C8.09961 23.5196 8.38407 22.8328 8.89042 22.3265C9.39677 21.8201 10.0835 21.5356 10.7996 21.5356C11.5157 21.5356 12.2025 21.8201 12.7088 22.3265C13.2151 22.8328 13.4996 23.5196 13.4996 24.2356V24.2356ZM11.6996 24.2356C11.6996 23.9969 11.6048 23.768 11.436 23.5992C11.2672 23.4305 11.0383 23.3356 10.7996 23.3356C10.5609 23.3356 10.332 23.4305 10.1632 23.5992C9.99443 23.768 9.89961 23.9969 9.89961 24.2356C9.89961 24.4743 9.99443 24.7033 10.1632 24.872C10.332 25.0408 10.5609 25.1356 10.7996 25.1356C11.0383 25.1356 11.2672 25.0408 11.436 24.872C11.6048 24.7033 11.6996 24.4743 11.6996 24.2356Z" fill="#404040"/>
<path d="M22.4996 24.2356C22.4996 24.9517 22.2151 25.6385 21.7088 26.1448C21.2024 26.6512 20.5157 26.9356 19.7996 26.9356C19.0835 26.9356 18.3968 26.6512 17.8904 26.1448C17.3841 25.6385 17.0996 24.9517 17.0996 24.2356C17.0996 23.5196 17.3841 22.8328 17.8904 22.3265C18.3968 21.8201 19.0835 21.5356 19.7996 21.5356C20.5157 21.5356 21.2024 21.8201 21.7088 22.3265C22.2151 22.8328 22.4996 23.5196 22.4996 24.2356V24.2356ZM20.6996 24.2356C20.6996 23.9969 20.6048 23.768 20.436 23.5992C20.2672 23.4305 20.0383 23.3356 19.7996 23.3356C19.5609 23.3356 19.332 23.4305 19.1632 23.5992C18.9944 23.768 18.8996 23.9969 18.8996 24.2356C18.8996 24.4743 18.9944 24.7033 19.1632 24.872C19.332 25.0408 19.5609 25.1356 19.7996 25.1356C20.0383 25.1356 20.2672 25.0408 20.436 24.872C20.6048 24.7033 20.6996 24.4743 20.6996 24.2356Z" fill="#404040"/>
</svg>
