<svg width="30" height="27" viewBox="0 0 30 27" fill="none" xmlns="http://www.w3.org/2000/svg">
<g clip-path="url(#clip0)">
<path d="M29.7322 6.64706C29.5942 6.44768 29.41 6.28471 29.1953 6.17211C28.9805 6.05952 28.7417 6.00066 28.4992 6.00058H7.99929L6.26833 1.84569C6.04137 1.29854 5.65705 0.8311 5.1641 0.502642C4.67115 0.174185 4.09176 -0.000499105 3.49941 0.000738958H0V3.00066H3.49941L10.6152 20.0777C10.7292 20.3509 10.9215 20.5843 11.1678 20.7485C11.4142 20.9126 11.7036 21.0002 11.9997 21.0002H23.9994C24.6248 21.0002 25.1843 20.6117 25.4048 20.0282L29.9047 8.02853C29.9898 7.80146 30.0185 7.55717 29.9884 7.31657C29.9584 7.07597 29.8705 6.84624 29.7322 6.64706Z" fill="#404040"/>
<path d="M12.7497 27.0001C13.9923 27.0001 14.9996 25.9928 14.9996 24.7502C14.9996 23.5076 13.9923 22.5002 12.7497 22.5002C11.5071 22.5002 10.4997 23.5076 10.4997 24.7502C10.4997 25.9928 11.5071 27.0001 12.7497 27.0001Z" fill="#404040"/>
<path d="M23.2494 27.0001C24.492 27.0001 25.4993 25.9928 25.4993 24.7502C25.4993 23.5076 24.492 22.5002 23.2494 22.5002C22.0068 22.5002 20.9995 23.5076 20.9995 24.7502C20.9995 25.9928 22.0068 27.0001 23.2494 27.0001Z" fill="#404040"/>
</g>
<defs>
<clipPath id="clip0">
<rect width="30" height="26.9993" fill="white" transform="translate(0 0.000732422)"/>
</clipPath>
</defs>
</svg>
