<svg width="14" height="20" viewBox="0 0 14 20" fill="none" xmlns="http://www.w3.org/2000/svg">
<path d="M8.52118 20H4.52118C4.25596 20 4.00161 19.8947 3.81407 19.7072C3.62654 19.5197 3.52118 19.2654 3.52118 19.0002V12.8017H1.52118C1.25596 12.8017 1.00161 12.6964 0.814073 12.5089C0.626536 12.3214 0.521179 12.0671 0.521179 11.802V8.20285C0.521179 7.9377 0.626536 7.68341 0.814073 7.49592C1.00161 7.30843 1.25596 7.20309 1.52118 7.20309H3.52118V5.50351C3.59127 3.98023 4.2618 2.54666 5.38615 1.51626C6.5105 0.485854 7.9972 -0.0575591 9.52118 0.00483616H12.5212C12.7864 0.00483616 13.0408 0.110167 13.2283 0.297659C13.4158 0.48515 13.5212 0.739442 13.5212 1.00459V4.60372C13.5212 4.86888 13.4158 5.12317 13.2283 5.31066C13.0408 5.49815 12.7864 5.60348 12.5212 5.60348H9.52118V7.20309H12.5212C12.6756 7.20193 12.8282 7.23652 12.967 7.30417C13.1058 7.37181 13.227 7.47067 13.3212 7.593C13.4143 7.71717 13.4773 7.86131 13.505 8.01401C13.5328 8.16672 13.5246 8.32379 13.4812 8.47279L12.4812 12.0719C12.4207 12.2882 12.2891 12.4778 12.1077 12.6102C11.9263 12.7426 11.7056 12.81 11.4812 12.8017H9.52118V19.0002C9.52118 19.2654 9.41582 19.5197 9.22829 19.7072C9.04075 19.8947 8.7864 20 8.52118 20ZM5.52118 18.0005H7.52118V11.802C7.52118 11.5368 7.62654 11.2825 7.81407 11.095C8.00161 10.9076 8.25596 10.8022 8.52118 10.8022H10.7612L11.2012 9.20261H8.52118C8.25596 9.20261 8.00161 9.09728 7.81407 8.90979C7.62654 8.7223 7.52118 8.46801 7.52118 8.20285V5.50351C7.54686 4.99072 7.76885 4.50746 8.14118 4.15383C8.5135 3.80021 9.00763 3.60332 9.52118 3.60397H11.5212V2.00435H9.52118C8.52799 1.94386 7.551 2.27732 6.80216 2.93239C6.05332 3.58747 5.59304 4.51131 5.52118 5.50351V8.20285C5.52118 8.46801 5.41582 8.7223 5.22829 8.90979C5.04075 9.09728 4.7864 9.20261 4.52118 9.20261H2.52118V10.8022H4.52118C4.7864 10.8022 5.04075 10.9076 5.22829 11.095C5.41582 11.2825 5.52118 11.5368 5.52118 11.802V18.0005Z" fill="#404040"/>
</svg>
