<svg width="150" height="150" viewBox="0 0 150 150" fill="none" xmlns="http://www.w3.org/2000/svg">
<path d="M76.7446 65.6485C76.8969 66.0235 77.2719 67.0314 77.6235 67.2423C78.0453 67.5118 79.4985 66.8321 79.9203 66.6095C81.2616 65.9244 82.3525 64.8336 83.0375 63.4923C84.3852 60.8321 82.7211 57.5157 79.5219 57.879C76.018 58.2774 75.7367 63.1173 76.7446 65.6485Z" fill="#ED6C30"/>
<path d="M67.851 76.535C68.1674 76.2655 69.0228 75.6092 69.1166 75.2108C69.2455 74.7186 68.1556 73.5467 67.8275 73.2069C66.7728 72.1405 65.4017 71.4022 63.9252 71.1678C60.9838 70.6756 58.3119 73.2655 59.6244 76.2186C61.0541 79.4295 65.7533 78.2342 67.851 76.535Z" fill="#ED6C30"/>
<path d="M81.5144 82.1137C81.116 82.0083 80.073 81.727 79.7097 81.8911C79.241 82.0903 78.9597 83.6606 78.8777 84.1176C78.6668 85.6059 78.9129 87.1411 79.616 88.4653C80.9988 91.102 84.6668 91.6762 86.2254 88.852C87.9363 85.7817 84.1511 82.7465 81.5144 82.1137Z" fill="#ED6C30"/>
<path d="M69.1528 61.7453C69.645 62.2023 70.1489 62.7297 70.6997 63.1398C71.0161 63.3742 71.7192 63.5617 72.0356 63.2453C72.5161 62.7648 72.6684 61.4875 72.809 60.8664C73.477 58.0187 73.8403 55.0539 73.3481 52.1476L73.3247 52.0539C72.5747 47.507 66.2582 46.3703 64.3832 50.8234L64.2543 51.175C63.3754 53.8703 64.4067 56.6945 66.2114 58.7218C67.1489 59.7765 68.1215 60.7726 69.1528 61.7453Z" fill="#ED6C30"/>
<path d="M57.9269 67.7684C59.3097 68.0027 60.7042 68.1668 62.0987 68.284C62.7784 68.3426 63.4933 68.4363 64.1847 68.4129C64.5597 68.4012 65.2394 68.0965 65.298 67.6629C65.3683 66.9832 64.6886 65.8934 64.4073 65.3191C63.1534 62.6707 61.5831 60.1277 59.3917 58.1707L59.3214 58.1004C55.8878 55.0301 50.2511 58.0887 51.5636 62.741L51.6925 63.0926C52.6652 65.741 55.2316 67.2996 57.9269 67.7684Z" fill="#ED6C30"/>
<path d="M49.98 83.1085C45.6324 84.6319 45.6089 91.0538 50.3199 92.1319L50.6949 92.1905C53.4957 92.6007 56.0972 91.089 57.7964 88.9562C58.6636 87.8546 59.4839 86.7179 60.2574 85.546C60.6324 84.9718 61.0543 84.3976 61.3589 83.7882C61.5347 83.4366 61.5933 82.7101 61.23 82.4523C60.6675 82.0538 59.3902 82.1359 58.7457 82.1007C55.8277 81.9484 52.8394 82.1007 50.0738 83.0734L49.98 83.1085Z" fill="#ED6C30"/>
<path d="M78.1646 105.163C79.9341 102.949 79.9459 99.9486 78.9615 97.3939C78.453 96.0878 77.8861 94.8053 77.2623 93.5502C76.9576 92.9408 76.6646 92.2845 76.3013 91.6986C76.0904 91.3822 75.4927 90.9603 75.0826 91.1361C74.4615 91.4173 73.8756 92.5541 73.524 93.1048C71.9068 95.5423 70.5357 98.2025 69.9732 101.074L69.9498 101.179C69.0826 105.702 74.5904 108.96 77.9068 105.445L78.1646 105.163Z" fill="#ED6C30"/>
<path d="M95.2849 89.8016L95.3669 89.8602C99.3982 92.0868 104.215 87.868 101.894 83.6141L101.695 83.2977C100.136 80.9305 97.2888 79.9813 94.57 80.1219C93.1638 80.1922 91.7692 80.3446 90.3864 80.5555C89.7185 80.6493 88.9919 80.7196 88.3357 80.8954C87.9607 80.9891 87.3747 81.4344 87.4216 81.868C87.4919 82.5477 88.406 83.45 88.8044 83.9657C90.6208 86.2508 92.7185 88.3836 95.2849 89.8016Z" fill="#ED6C30"/>
<path d="M87.8308 68.4152C88.4871 68.6261 89.6824 68.1573 90.3035 67.9933C93.1394 67.2667 95.9285 66.2003 98.2722 64.4308L98.3543 64.3722C102.022 61.5831 100.1 55.4659 95.2839 55.8761L94.9089 55.9347C92.1199 56.3917 90.0925 58.6183 89.1199 61.173C88.6283 62.4854 88.1943 63.8187 87.8191 65.1691C87.6433 65.8253 87.4089 66.505 87.3035 67.1847C87.2449 67.5714 87.4089 68.2745 87.8308 68.4152Z" fill="#ED6C30"/>
<path d="M22.9931 102.481L23.3564 102.598C26.2978 103.383 29.7431 101.731 32.2157 100.301C34.5009 98.9767 36.7509 97.547 38.8017 95.8595C39.5986 95.1916 40.4423 94.5705 41.0986 93.7619C41.6845 93.0236 42.1064 91.5939 40.8876 91.1955C39.1767 90.6564 37.1962 90.9376 35.4384 91.0197C31.5009 91.2072 27.2353 91.3595 23.6025 93.0705C22.3368 93.6681 21.2587 94.547 20.497 95.8712C19.0908 98.297 20.2861 101.52 22.9931 102.481Z" fill="#F79329"/>
<path d="M84.0454 133.828L84.2563 133.512C85.8032 130.898 85.1235 127.125 84.397 124.359C83.7173 121.804 82.9438 119.25 81.854 116.836C81.4204 115.898 81.0571 114.914 80.4477 114.07C79.8852 113.308 78.6196 112.512 77.9165 113.578C76.9321 115.078 76.686 117.07 76.2993 118.781C75.4321 122.625 74.4477 126.773 75.1157 130.722C75.3618 132.094 75.9243 133.383 76.9907 134.461C78.9829 136.488 82.4048 136.195 84.0454 133.828Z" fill="#F79329"/>
<path d="M127.229 101.368C129.889 100.395 131.038 97.1605 129.573 94.6995L129.374 94.3714C127.628 91.8753 123.925 90.9261 121.1 90.4456C118.499 90.0003 115.85 89.6488 113.202 89.637C112.171 89.637 111.116 89.5667 110.096 89.7659C109.171 89.9534 107.928 90.7855 108.608 91.8636C109.557 93.387 111.268 94.43 112.663 95.4964C115.803 97.887 119.167 100.5 123.046 101.532C124.393 101.871 125.788 101.907 127.229 101.368Z" fill="#F79329"/>
<path d="M107.121 40.1258C105.621 42.3054 104.203 44.5672 103.078 46.9578C102.644 47.8953 102.14 48.8211 101.894 49.8406C101.683 50.7664 101.906 52.2312 103.183 52.0789C104.964 51.8445 106.628 50.7312 108.175 49.9109C111.656 48.0593 115.441 46.0906 117.996 42.9968C118.874 41.9187 119.484 40.6648 119.601 39.1297C119.835 36.3054 117.374 33.9031 114.515 34.2078L114.14 34.2547C111.152 34.7937 108.738 37.7703 107.121 40.1258Z" fill="#F79329"/>
<path d="M28.4885 60.7146C31.0784 61.2536 33.7034 61.7107 36.3518 61.8161C37.383 61.8513 38.4377 61.9685 39.4573 61.8044C40.3948 61.6521 41.6721 60.8786 41.0276 59.7536C40.1369 58.2067 38.4612 57.0935 37.1135 55.9685C34.0549 53.4724 30.7971 50.7185 26.9534 49.57C25.6174 49.1599 24.2346 49.0778 22.7815 49.5466C20.0862 50.4138 18.8088 53.6013 20.1799 56.1325L20.3791 56.4724C22.0198 59.0271 25.6877 60.1286 28.4885 60.7146Z" fill="#F79329"/>
<path d="M47.9295 24.5866L47.8474 24.9616C47.3435 27.9616 49.324 31.2311 50.9881 33.5632C52.5349 35.696 54.1756 37.8053 56.0623 39.6803C56.7888 40.4069 57.5037 41.1921 58.3709 41.7663C59.156 42.2819 60.6326 42.5632 60.9021 41.3092C61.2888 39.5514 60.7967 37.6178 60.5623 35.8835C59.9881 31.9811 59.4256 27.7507 57.3631 24.3053C56.6482 23.0983 55.6756 22.1139 54.2928 21.4811C51.7029 20.2858 48.6092 21.7975 47.9295 24.5866Z" fill="#F79329"/>
<path d="M70.6521 16.7464L70.4529 17.0628C68.7302 19.9339 69.6091 23.6253 70.1833 26.6956C71.1326 31.8401 72.3513 36.9026 74.0857 41.8362C74.3552 42.5979 74.6599 43.969 75.5505 44.2503C76.9099 44.6604 77.1326 42.7034 77.3787 41.8831C78.5154 38.0862 78.7498 33.9846 79.3123 30.0706C79.8044 26.6956 80.1443 23.262 79.5701 19.8635C79.3357 18.4924 78.7732 17.2034 77.7068 16.1253C75.7263 14.0979 72.3044 14.3909 70.6521 16.7464Z" fill="#F79329"/>
<path d="M30.2211 36.3285C30.9828 39.5981 34.182 41.6254 36.7367 43.4418C40.9906 46.477 45.3851 49.2543 50.0726 51.5864C50.7875 51.9379 51.9711 52.7231 52.8031 52.2895C54.0687 51.6567 52.8617 50.0864 52.475 49.3129C50.6586 45.809 47.9633 42.7035 45.643 39.5043C43.6391 36.7387 41.4945 34.0317 38.7172 32.0043C37.5922 31.1723 36.2914 30.645 34.768 30.6098C31.9437 30.5395 29.682 33.1293 30.139 35.977L30.2211 36.3285Z" fill="#F79329"/>
<path d="M52.8973 101.754C52.2879 100.476 50.6941 101.648 49.9207 102.035C46.3699 103.781 43.2059 106.418 39.9715 108.668C37.1707 110.613 34.4168 112.699 32.3309 115.429C31.4871 116.543 30.9246 117.82 30.8543 119.355C30.7254 122.179 33.2684 124.488 36.116 124.09L36.491 124.019C39.7606 123.316 41.8582 120.164 43.7215 117.644C46.8504 113.449 49.7098 109.113 52.1356 104.472C52.5106 103.757 53.3074 102.586 52.8973 101.754Z" fill="#F79329"/>
<path d="M64.3719 108.972C61.8289 111.996 59.9774 115.675 57.9149 119.039C56.1219 121.945 54.4461 124.957 53.6258 128.296C53.286 129.656 53.286 131.05 53.8485 132.48C54.8563 135.129 58.1141 136.207 60.5633 134.707L60.8797 134.496C63.5867 132.539 64.243 128.8 64.9461 125.742C66.118 120.644 67.0086 115.535 67.3836 110.308C67.4422 109.5 67.7 108.117 66.9852 107.519C65.9071 106.617 64.9227 108.316 64.3719 108.972Z" fill="#F79329"/>
<path d="M15.2808 69.6559C13.1011 71.4489 13.0894 74.8825 15.2808 76.7223L15.5855 76.9567C18.3042 78.9137 22.0425 78.3512 25.1714 78.0583C30.3745 77.5661 35.5073 76.7809 40.5815 75.4919C41.3667 75.2809 42.7612 75.0934 43.1128 74.2379C43.6519 72.9254 41.7065 72.527 40.9097 72.2106C37.2417 70.7458 33.1519 70.1598 29.3198 69.2692C26.0034 68.484 22.605 67.8512 19.1831 68.1208C17.8003 68.2262 16.4644 68.6715 15.2808 69.6559Z" fill="#F79329"/>
<path d="M88.4296 47.2741C89.3437 47.4382 90.2343 46.3366 90.8085 45.7859C94.5585 42.1296 97.9101 38.1569 101.051 33.9734C102.937 31.4655 105.363 28.571 105.105 25.2194L105.07 24.8444C104.648 21.9968 101.707 20.2155 99.0351 21.153C97.5937 21.6569 96.5155 22.5476 95.6952 23.6726C93.6679 26.4616 92.4491 29.6726 91.3827 32.9187C90.1405 36.6569 88.5116 40.4421 87.8437 44.3444C87.703 45.1882 87.0351 47.0398 88.4296 47.2741Z" fill="#F79329"/>
<path d="M126.609 52.2065C123.234 52.8276 120.117 54.3276 117.105 55.9448C113.636 57.8081 109.851 59.4252 106.676 61.7807C105.996 62.2963 104.226 63.1752 105.07 64.312C105.644 65.0502 107.039 64.8745 107.836 64.8745C113.074 64.8159 118.242 64.2417 123.398 63.3745C126.48 62.8471 130.242 62.4135 132.363 59.8237L132.597 59.519C134.25 57.1635 133.347 53.8471 130.769 52.687C129.375 52.0424 127.98 51.9487 126.609 52.2065Z" fill="#F79329"/>
<path d="M104.461 130.219C104.836 128.73 104.672 127.336 104.18 126.035C102.961 122.824 100.934 120.023 98.8125 117.351C96.3633 114.269 94.0898 110.824 91.207 108.129C90.5742 107.543 89.3906 105.961 88.4297 107.004C87.7969 107.683 88.2187 109.031 88.3711 109.828C89.3555 114.961 90.8437 119.941 92.625 124.863C93.6797 127.804 94.7812 131.437 97.6992 133.054L98.039 133.219C100.664 134.426 103.77 132.949 104.461 130.219Z" fill="#F79329"/>
<path d="M120.516 114.738C118.184 112.218 115.254 110.39 112.266 108.714C108.832 106.781 105.434 104.472 101.742 103.066C100.934 102.761 99.2462 101.741 98.7423 103.077C98.4259 103.945 99.3165 105.023 99.7618 105.702C102.621 110.097 105.879 114.14 109.383 118.031C111.481 120.351 113.871 123.292 117.188 123.691L117.563 123.714C120.434 123.843 122.754 121.3 122.356 118.499C122.156 116.988 121.477 115.757 120.516 114.738Z" fill="#F79329"/>
<path d="M130.993 74.0272C127.618 73.3944 124.173 73.6756 120.798 74.0975C116.884 74.5897 112.77 74.742 108.962 75.8084C108.13 76.0428 106.161 76.242 106.559 77.6014C106.817 78.492 108.177 78.8319 108.938 79.1131C113.837 80.9412 118.864 82.2537 123.997 83.2967C127.056 83.9295 130.735 84.867 133.641 83.2147L133.958 83.0155C136.349 81.41 136.7 77.9881 134.72 75.9725C133.641 74.8709 132.364 74.2967 130.993 74.0272Z" fill="#F79329"/>
<path d="M80.2266 70.9805C78.5156 70.9805 77.1328 72.375 77.1328 74.0742C77.1328 75.7852 78.5156 77.168 80.2266 77.168C81.9375 77.168 83.3203 75.7852 83.3203 74.0742C83.3203 72.375 81.9375 70.9805 80.2266 70.9805Z" fill="#ED6C30"/>
<path d="M70.335 86.1221C72.0436 86.1221 73.4287 84.737 73.4287 83.0283C73.4287 81.3197 72.0436 79.9346 70.335 79.9346C68.6263 79.9346 67.2412 81.3197 67.2412 83.0283C67.2412 84.737 68.6263 86.1221 70.335 86.1221Z" fill="#ED6C30"/>
<path d="M106.498 137.613C103.545 137.613 101.166 140.004 101.166 142.945C101.166 145.898 103.557 148.277 106.498 148.277C107.912 148.277 109.268 147.716 110.268 146.716C111.268 145.716 111.83 144.359 111.83 142.945C111.83 141.531 111.268 140.175 110.268 139.175C109.268 138.175 107.912 137.613 106.498 137.613Z" fill="#FCC21B"/>
<path d="M130.219 133.64C133.164 133.64 135.551 131.252 135.551 128.308C135.551 125.363 133.164 122.976 130.219 122.976C127.274 122.976 124.887 125.363 124.887 128.308C124.887 131.252 127.274 133.64 130.219 133.64Z" fill="#FCC21B"/>
<path d="M141.339 96.4463C140.639 96.4463 139.945 96.5842 139.298 96.8522C138.651 97.1201 138.064 97.5129 137.569 98.008C137.073 98.5031 136.681 99.0909 136.413 99.7378C136.145 100.385 136.007 101.078 136.007 101.778C136.007 102.479 136.145 103.172 136.413 103.819C136.681 104.466 137.073 105.054 137.569 105.549C138.064 106.044 138.651 106.437 139.298 106.704C139.945 106.972 140.639 107.11 141.339 107.11C144.28 107.11 146.671 104.72 146.671 101.778C146.671 98.8252 144.28 96.4463 141.339 96.4463Z" fill="#FCC21B"/>
<path d="M143.133 57.4336C146.078 57.4336 148.465 55.0464 148.465 52.1016C148.465 49.1568 146.078 46.7695 143.133 46.7695C140.188 46.7695 137.801 49.1568 137.801 52.1016C137.801 55.0464 140.188 57.4336 143.133 57.4336Z" fill="#FCC21B"/>
<path d="M109.089 16.29C109.79 16.2916 110.484 16.1547 111.131 15.8873C111.779 15.6199 112.367 15.2272 112.863 14.7318C113.358 14.2363 113.751 13.6479 114.018 13.0003C114.286 12.3527 114.422 11.6587 114.421 10.958C114.421 8.0166 112.03 5.62598 109.089 5.62598C106.136 5.62598 103.757 8.0166 103.757 10.958C103.757 13.9111 106.147 16.29 109.089 16.29Z" fill="#FCC21B"/>
<path d="M45.377 16.3125C48.3301 16.3125 50.709 13.9219 50.709 10.9805C50.709 8.02736 48.3184 5.64845 45.377 5.64845C44.6763 5.64691 43.9823 5.78377 43.3347 6.05118C42.6871 6.31859 42.0986 6.71129 41.6032 7.20672C41.1078 7.70215 40.7151 8.29057 40.4477 8.93817C40.1803 9.58578 40.0434 10.2798 40.0449 10.9805C40.0449 13.9219 42.4238 16.3125 45.377 16.3125Z" fill="#FCC21B"/>
<path d="M10.2432 53.4151C13.188 53.4151 15.5752 51.0226 15.5752 48.0713C15.5752 45.12 13.188 42.7275 10.2432 42.7275C7.29836 42.7275 4.91113 45.12 4.91113 48.0713C4.91113 51.0226 7.29836 53.4151 10.2432 53.4151Z" fill="#FCC21B"/>
<path d="M10.4043 99.8428C9.70311 99.8428 9.0088 99.9811 8.36112 100.25C7.71344 100.518 7.12512 100.912 6.62985 101.409C6.13457 101.905 5.74206 102.494 5.47479 103.142C5.20752 103.791 5.07074 104.485 5.07228 105.187C5.07228 108.128 7.4629 110.519 10.4043 110.519C13.3457 110.519 15.7363 108.128 15.7363 105.187C15.7363 102.222 13.3574 99.8428 10.4043 99.8428Z" fill="#FCC21B"/>
<path d="M53.3672 149.589C56.3185 149.589 58.7109 147.196 58.7109 144.245C58.7109 141.294 56.3185 138.901 53.3672 138.901C50.4159 138.901 48.0234 141.294 48.0234 144.245C48.0234 147.196 50.4159 149.589 53.3672 149.589Z" fill="#FCC21B"/>
<path d="M144.808 75.4922C142.253 75.4922 140.19 77.5547 140.19 80.0977C140.19 82.6523 142.253 84.7266 144.808 84.7266C147.351 84.7266 149.413 82.6523 149.413 80.0977C149.425 77.5547 147.351 75.4922 144.808 75.4922Z" fill="#FCC21B"/>
<path d="M127.054 34.1484C129.597 34.1484 131.659 32.0813 131.659 29.5313C131.659 26.9812 129.597 24.9141 127.054 24.9141C124.51 24.9141 122.448 26.9812 122.448 29.5313C122.448 32.0813 124.51 34.1484 127.054 34.1484Z" fill="#FCC21B"/>
<path d="M73.7578 9.64453C76.3078 9.64453 78.375 7.57735 78.375 5.02734C78.375 2.47734 76.3078 0.410156 73.7578 0.410156C71.2078 0.410156 69.1406 2.47734 69.1406 5.02734C69.1406 7.57735 71.2078 9.64453 73.7578 9.64453Z" fill="#FCC21B"/>
<path d="M23.7656 29.9531C26.3156 29.9531 28.3828 27.8859 28.3828 25.3359C28.3828 22.7859 26.3156 20.7188 23.7656 20.7188C21.2156 20.7188 19.1484 22.7859 19.1484 25.3359C19.1484 27.8859 21.2156 29.9531 23.7656 29.9531Z" fill="#FCC21B"/>
<path d="M5.19043 78.2695C7.74043 78.2695 9.80762 76.2023 9.80762 73.6523C9.80762 71.1023 7.74043 69.0352 5.19043 69.0352C2.64043 69.0352 0.573242 71.1023 0.573242 73.6523C0.573242 76.2023 2.64043 78.2695 5.19043 78.2695Z" fill="#FCC21B"/>
<path d="M25.5693 134.497C28.1193 134.497 30.1865 132.43 30.1865 129.88C30.1865 127.33 28.1193 125.263 25.5693 125.263C23.0193 125.263 20.9521 127.33 20.9521 129.88C20.9521 132.43 23.0193 134.497 25.5693 134.497Z" fill="#FCC21B"/>
<path d="M81.0361 149.555C83.5861 149.555 85.6533 147.488 85.6533 144.938C85.6533 142.387 83.5861 140.32 81.0361 140.32C78.4861 140.32 76.4189 142.387 76.4189 144.938C76.4189 147.488 78.4861 149.555 81.0361 149.555Z" fill="#FCC21B"/>
</svg>
