<svg width="30" height="30" viewBox="0 0 30 30" fill="none" xmlns="http://www.w3.org/2000/svg">
<path fill-rule="evenodd" clip-rule="evenodd" d="M2.99999 6C2.73478 6 2.48042 6.10536 2.29289 6.29289C2.10535 6.48043 1.99999 6.73478 1.99999 7C1.99999 7.26522 2.10535 7.51957 2.29289 7.70711C2.48042 7.89464 2.73478 8 2.99999 8H27C27.2652 8 27.5196 7.89464 27.7071 7.70711C27.8946 7.51957 28 7.26522 28 7C28 6.73478 27.8946 6.48043 27.7071 6.29289C27.5196 6.10536 27.2652 6 27 6H2.99999ZM1.99999 15C1.99999 14.7348 2.10535 14.4804 2.29289 14.2929C2.48042 14.1054 2.73478 14 2.99999 14H27C27.2652 14 27.5196 14.1054 27.7071 14.2929C27.8946 14.4804 28 14.7348 28 15C28 15.2652 27.8946 15.5196 27.7071 15.7071C27.5196 15.8946 27.2652 16 27 16H2.99999C2.73478 16 2.48042 15.8946 2.29289 15.7071C2.10535 15.5196 1.99999 15.2652 1.99999 15ZM1.99999 23C1.99999 22.7348 2.10535 22.4804 2.29289 22.2929C2.48042 22.1054 2.73478 22 2.99999 22H27C27.2652 22 27.5196 22.1054 27.7071 22.2929C27.8946 22.4804 28 22.7348 28 23C28 23.2652 27.8946 23.5196 27.7071 23.7071C27.5196 23.8946 27.2652 24 27 24H2.99999C2.73478 24 2.48042 23.8946 2.29289 23.7071C2.10535 23.5196 1.99999 23.2652 1.99999 23Z" fill="#404040"/>
</svg>
