<svg width="22" height="25" viewBox="0 0 22 25" fill="none" xmlns="http://www.w3.org/2000/svg">
<g clip-path="url(#clip0)">
<path d="M0.590353 1.1855C0.67659 0.982298 0.820702 0.808957 1.00474 0.687065C1.18878 0.565173 1.40461 0.500117 1.62535 0.5H20.3754C20.6737 0.5 20.9599 0.618526 21.1709 0.829505C21.3818 1.04048 21.5004 1.32663 21.5004 1.625C21.5004 1.92337 21.3818 2.20952 21.1709 2.4205C20.9599 2.63147 20.6737 2.75 20.3754 2.75H4.28035L12.3204 11.0585C12.5153 11.26 12.6279 11.527 12.6363 11.8073C12.6446 12.0875 12.548 12.3608 12.3654 12.5735L4.07035 22.25H20.3754C20.6737 22.25 20.9599 22.3685 21.1709 22.5795C21.3818 22.7905 21.5004 23.0766 21.5004 23.375C21.5004 23.6734 21.3818 23.9595 21.1709 24.1705C20.9599 24.3815 20.6737 24.5 20.3754 24.5H1.62535C1.41015 24.5001 1.19943 24.4386 1.01818 24.3225C0.836926 24.2065 0.692749 24.041 0.602748 23.8455C0.512748 23.65 0.4807 23.4328 0.510407 23.2197C0.540115 23.0066 0.63033 22.8064 0.770353 22.643L9.99085 11.888L0.816853 2.408C0.662881 2.24921 0.559134 2.04855 0.518582 1.83112C0.47803 1.61368 0.502472 1.38912 0.588853 1.1855H0.590353Z" fill="#404040"/>
</g>
<defs>
<clipPath id="clip0">
<rect width="21.0008" height="24" fill="white" transform="translate(0.499512 0.5)"/>
</clipPath>
</defs>
</svg>
